<?xml version="1.0" standalone="no"?>
<!DOCTYPE svg PUBLIC "-//W3C//DTD SVG 20010904//EN"
 "http://www.w3.org/TR/2001/REC-SVG-20010904/DTD/svg10.dtd">
<svg version="1.0" xmlns="http://www.w3.org/2000/svg"
 width="489.000000pt" height="510.000000pt" viewBox="0 0 489.000000 510.000000"
 preserveAspectRatio="xMidYMid meet">

<g transform="translate(0.000000,510.000000) scale(0.100000,-0.100000)"
fill="#000000" stroke="none">
<path d="M2190 4354 c-41 -7 -84 -18 -95 -23 -11 -5 -42 -15 -70 -21 -27 -6
-57 -18 -65 -25 -9 -8 -63 -26 -120 -41 -80 -20 -134 -42 -225 -92 -66 -36
-137 -74 -157 -85 -21 -10 -38 -24 -38 -31 0 -6 -21 -23 -48 -38 -26 -14 -77
-58 -114 -97 -37 -39 -72 -71 -77 -71 -6 0 -18 -14 -26 -30 -14 -27 -14 -31 0
-36 8 -3 15 -13 15 -21 0 -12 3 -13 14 -3 8 6 12 18 9 25 -3 9 8 21 31 31 21
10 36 26 38 38 2 13 10 20 21 19 11 0 23 9 29 23 8 16 19 24 37 24 19 0 44 19
98 77 57 61 75 75 85 65 18 -18 23 -15 50 26 36 53 76 91 122 113 22 10 42 19
45 19 3 0 -26 -32 -64 -71 -39 -40 -64 -68 -56 -64 7 4 23 9 35 10 33 4 34 4
32 21 -1 19 88 84 116 84 12 0 17 -4 12 -12 -5 -8 -2 -9 12 -4 10 5 33 12 49
16 17 4 43 13 58 19 16 6 42 11 59 11 30 0 31 1 14 19 -32 35 -17 56 43 59 68
4 88 -3 71 -23 -11 -13 -8 -14 21 -10 19 3 54 8 79 12 25 3 52 11 60 18 33 27
72 30 203 17 160 -16 142 -16 197 -2 47 12 125 7 145 -10 6 -5 45 -12 86 -16
89 -8 141 -27 137 -49 -2 -11 19 -26 70 -50 40 -19 70 -30 67 -25 -18 29 127
-16 155 -48 8 -9 24 -24 35 -32 15 -12 17 -12 10 -1 -6 11 -4 13 8 8 41 -17
50 -17 22 -1 -16 9 -46 30 -67 45 -20 16 -49 31 -65 33 -44 5 -113 28 -113 38
0 4 -6 8 -13 8 -7 0 -22 8 -33 19 -72 66 -403 127 -794 145 -41 2 -109 -2
-150 -10z"/>
<path d="M1975 4029 c-247 -49 -461 -92 -475 -97 -33 -10 -80 -101 -80 -156 0
-68 18 -113 55 -142 43 -32 45 -54 7 -54 -36 0 -63 -29 -71 -77 -5 -29 -12
-38 -30 -43 -55 -13 -88 -147 -57 -236 12 -34 14 -65 10 -114 -9 -96 0 -132
52 -195 38 -47 43 -58 34 -76 -9 -16 -19 -20 -47 -17 -33 3 -38 0 -57 -37 -16
-31 -21 -58 -21 -120 0 -44 5 -89 12 -100 12 -22 1044 -745 1063 -745 7 0 138
52 293 116 155 64 377 156 492 203 241 99 244 102 158 161 -78 52 -73 77 33
192 9 9 13 22 9 28 -3 6 -47 31 -96 56 -91 45 -102 60 -61 79 12 5 22 15 22
22 0 10 30 21 163 59 31 9 18 33 -39 69 -55 35 -56 37 -49 73 8 44 50 112 69
112 7 0 24 9 38 19 13 11 62 34 108 51 107 41 112 46 79 73 l-26 22 18 30 c11
17 19 44 19 62 0 22 6 36 21 43 32 17 19 31 -62 65 -64 28 -74 35 -77 60 -6
47 7 77 51 117 34 30 40 41 32 54 -6 9 -143 81 -305 159 -162 78 -404 194
-537 258 -144 70 -254 117 -270 116 -15 -1 -230 -41 -478 -90z m947 -155 c244
-119 471 -230 506 -245 34 -16 62 -33 62 -37 0 -4 -232 -66 -516 -137 l-516
-129 -23 -35 c-35 -57 -48 -108 -41 -164 4 -28 12 -59 17 -69 10 -18 8 -18
-11 -8 -48 26 -906 603 -917 617 -6 8 -15 43 -18 78 -6 51 -3 71 13 108 17 38
26 47 54 52 18 4 227 46 463 95 237 48 442 88 457 89 17 1 201 -84 470 -215z
m-1295 -346 c34 -23 61 -44 59 -46 -2 -1 -30 9 -61 23 -112 49 -65 16 86 -60
137 -69 282 -163 653 -419 l70 -48 80 22 c45 12 92 26 106 30 14 5 61 18 105
29 44 12 147 39 230 61 82 21 151 37 154 35 2 -3 -2 -7 -10 -9 -8 -3 -105 -37
-216 -75 -111 -38 -207 -72 -213 -76 -25 -16 -42 -69 -38 -122 3 -29 3 -53 0
-53 -2 0 -21 9 -41 19 -20 11 -279 139 -576 286 -297 146 -546 274 -552 283
-15 18 -17 90 -4 111 5 8 24 16 42 17 18 1 36 9 41 18 12 22 15 21 85 -26z
m1818 -45 c-4 -10 -8 -47 -9 -82 l-1 -63 -470 -119 c-258 -65 -475 -117 -482
-114 -18 6 -12 121 8 140 8 8 57 26 109 39 142 36 750 195 785 205 51 15 68
13 60 -6z m-2028 -85 c5 -12 35 -38 66 -57 31 -20 161 -113 289 -207 281 -205
428 -308 433 -302 5 5 -291 242 -403 322 -45 32 -81 61 -78 63 2 2 168 -79
369 -181 201 -102 363 -188 359 -190 -4 -2 -50 -14 -103 -26 -92 -21 -97 -23
-113 -58 -25 -51 -29 -119 -13 -179 9 -34 10 -50 3 -46 -15 9 -253 190 -292
222 -17 14 -75 60 -129 101 -54 41 -123 95 -155 120 -32 25 -81 63 -110 85
-165 126 -173 135 -185 207 -5 25 15 110 32 141 8 13 20 7 30 -15z m1051 -147
c-12 -22 -24 -38 -26 -37 -5 6 32 76 40 76 5 0 -2 -18 -14 -39z m1112 -10 c0
-5 -15 -30 -33 -56 l-33 -48 -204 -74 c-113 -40 -287 -103 -387 -139 -100 -36
-187 -62 -193 -59 -6 4 -16 18 -21 32 -12 32 -1 46 54 66 175 63 458 165 592
212 88 31 169 60 180 65 27 12 45 12 45 1z m-1143 -113 c-3 -7 -5 -2 -5 12 0
14 2 19 5 13 2 -7 2 -19 0 -25z m-857 -154 c145 -109 198 -156 310 -278 74
-80 141 -148 149 -151 18 -7 9 4 -76 101 -35 40 -63 75 -63 79 0 3 54 -35 120
-85 116 -89 136 -110 105 -110 -8 0 -23 -4 -33 -9 -9 -5 -30 -13 -46 -17 -58
-17 -99 -153 -65 -216 6 -11 9 -22 6 -24 -4 -4 -100 108 -370 435 -48 58 -97
117 -109 131 -132 154 -147 183 -134 255 5 24 11 33 19 28 7 -4 91 -66 187
-139z m1690 -53 c0 -25 -15 -41 -39 -42 l-26 -1 24 -7 c31 -8 38 -27 14 -39
-10 -5 -90 -27 -177 -48 -88 -21 -155 -39 -149 -41 5 -2 81 14 169 36 147 36
189 41 167 21 -4 -5 -53 -20 -108 -35 -55 -15 -147 -40 -205 -56 -188 -52
-322 -88 -464 -125 -134 -36 -140 -36 -152 -19 -21 28 -22 118 -3 141 5 6 37
17 72 23 34 7 97 21 140 32 67 17 81 18 97 6 11 -8 17 -17 13 -20 -3 -4 0 -7
8 -7 24 1 181 49 203 63 39 25 161 70 266 98 111 30 150 35 150 20z m-560 -80
c-1 -17 -30 36 -30 53 1 16 5 12 15 -13 8 -18 15 -36 15 -40z m-1191 -85 c23
-26 40 -50 37 -53 -2 -2 -22 5 -45 17 -64 32 -48 16 33 -34 62 -39 95 -73 222
-223 226 -268 244 -287 267 -296 13 -5 63 3 141 24 81 21 134 29 160 26 25 -4
35 -2 26 3 -12 8 -12 10 0 14 15 5 385 92 430 101 45 9 0 -11 -170 -76 -91
-34 -173 -69 -182 -77 -11 -9 -27 -12 -46 -7 -24 5 -33 1 -50 -20 -27 -34 -46
-126 -38 -182 4 -30 2 -42 -5 -37 -9 5 -108 74 -299 207 -14 10 -61 42 -105
72 -44 30 -100 69 -125 86 -25 18 -85 60 -135 94 -273 186 -282 194 -291 230
-10 40 1 123 20 143 11 13 25 17 46 14 21 -3 32 0 36 12 10 25 27 16 73 -38z
m776 -36 c-19 -37 -19 -130 0 -177 17 -40 20 -62 6 -48 -42 46 -41 255 0 255
5 0 3 -13 -6 -30z m808 -142 c-3 -18 -8 -36 -12 -40 -3 -3 -49 -16 -101 -27
-66 -14 -78 -18 -40 -14 30 3 76 11 103 18 37 10 47 10 47 0 0 -13 -82 -34
-645 -165 -143 -33 -286 -66 -317 -74 -53 -13 -58 -12 -74 5 -10 11 -15 21
-12 24 3 3 56 14 119 26 63 11 119 22 124 24 17 8 -87 -5 -169 -21 -65 -13
-80 -14 -87 -2 -25 39 3 100 51 110 167 35 151 34 172 8 l19 -23 102 17 c56
10 110 18 119 18 10 -1 17 4 15 10 -3 17 235 83 398 110 207 34 196 35 188 -4z
m117 -37 l55 -29 -27 -12 c-25 -12 -32 -10 -68 14 -38 25 -54 57 -27 56 6 -1
37 -14 67 -29z m53 -118 c-7 -3 -21 -12 -32 -21 -16 -15 -18 -25 -12 -70 7
-52 7 -54 -22 -68 -24 -13 -596 -253 -749 -314 l-47 -19 -13 40 c-11 37 -10
43 8 57 17 13 17 14 1 8 -15 -5 -18 -1 -15 21 2 19 10 29 23 31 11 2 27 10 35
17 8 7 191 83 405 168 446 176 418 166 425 159 3 -2 -1 -7 -7 -9z m-884 -518
c1 -33 -15 3 -22 50 l-6 40 14 -35 c7 -19 14 -44 14 -55z"/>
<path d="M1580 3851 c26 -21 751 -457 807 -485 39 -20 54 -21 28 -2 -60 41
-769 463 -827 491 l-33 16 25 -20z"/>
<path d="M3298 3423 c7 -3 16 -2 19 1 4 3 -2 6 -13 5 -11 0 -14 -3 -6 -6z"/>
<path d="M3239 3416 c-2 -2 -49 -13 -104 -25 -186 -39 -406 -93 -401 -99 3 -3
79 12 168 33 261 61 385 93 362 94 -11 1 -23 -1 -25 -3z"/>
<path d="M3060 3314 c-58 -14 -148 -34 -200 -45 -150 -31 -272 -61 -268 -65 7
-7 537 108 582 126 38 15 -7 9 -114 -16z"/>
<path d="M2698 3283 c7 -3 16 -2 19 1 4 3 -2 6 -13 5 -11 0 -14 -3 -6 -6z"/>
<path d="M2598 3153 c7 -3 16 -2 19 1 4 3 -2 6 -13 5 -11 0 -14 -3 -6 -6z"/>
<path d="M2558 3143 c7 -3 16 -2 19 1 4 3 -2 6 -13 5 -11 0 -14 -3 -6 -6z"/>
<path d="M3232 3068 c-45 -17 -81 -33 -79 -35 4 -4 168 54 176 63 9 9 -17 1
-97 -28z"/>
<path d="M3050 3044 c-173 -63 -260 -97 -257 -101 4 -4 357 124 366 132 9 10
-18 2 -109 -31z"/>
<path d="M3082 3013 c-24 -8 -41 -17 -39 -19 4 -5 97 26 97 32 0 6 -11 4 -58
-13z"/>
<path d="M2878 2733 c7 -3 16 -2 19 1 4 3 -2 6 -13 5 -11 0 -14 -3 -6 -6z"/>
<path d="M2578 2723 c7 -3 16 -2 19 1 4 3 -2 6 -13 5 -11 0 -14 -3 -6 -6z"/>
<path d="M2838 2723 c7 -3 16 -2 19 1 4 3 -2 6 -13 5 -11 0 -14 -3 -6 -6z"/>
<path d="M2798 2713 c7 -3 16 -2 19 1 4 3 -2 6 -13 5 -11 0 -14 -3 -6 -6z"/>
<path d="M2700 2694 l-45 -13 45 6 c25 3 54 9 65 14 l20 8 -20 -1 c-11 0 -40
-6 -65 -14z"/>
<path d="M2828 2523 c6 -2 18 -2 25 0 6 3 1 5 -13 5 -14 0 -19 -2 -12 -5z"/>
<path d="M2778 2513 c6 -2 18 -2 25 0 6 3 1 5 -13 5 -14 0 -19 -2 -12 -5z"/>
<path d="M2728 2503 c6 -2 18 -2 25 0 6 3 1 5 -13 5 -14 0 -19 -2 -12 -5z"/>
<path d="M2678 2493 c7 -3 16 -2 19 1 4 3 -2 6 -13 5 -11 0 -14 -3 -6 -6z"/>
<path d="M2618 2483 c7 -3 16 -2 19 1 4 3 -2 6 -13 5 -11 0 -14 -3 -6 -6z"/>
<path d="M2858 2483 c6 -2 18 -2 25 0 6 3 1 5 -13 5 -14 0 -19 -2 -12 -5z"/>
<path d="M2558 2473 c7 -3 16 -2 19 1 4 3 -2 6 -13 5 -11 0 -14 -3 -6 -6z"/>
<path d="M2218 2423 c6 -2 18 -2 25 0 6 3 1 5 -13 5 -14 0 -19 -2 -12 -5z"/>
<path d="M2338 2363 c7 -3 16 -2 19 1 4 3 -2 6 -13 5 -11 0 -14 -3 -6 -6z"/>
<path d="M2850 2210 c-8 -5 -10 -10 -5 -10 6 0 17 5 25 10 8 5 11 10 5 10 -5
0 -17 -5 -25 -10z"/>
<path d="M1720 4100 c-9 -6 -10 -10 -3 -10 6 0 15 5 18 10 8 12 4 12 -15 0z"/>
<path d="M1499 3983 c-13 -16 -12 -17 4 -4 9 7 17 15 17 17 0 8 -8 3 -21 -13z"/>
<path d="M3541 3946 c2 -2 25 -20 52 -40 47 -36 47 -36 47 -12 0 14 -5 28 -12
32 -8 5 -9 2 -5 -9 9 -23 0 -21 -35 8 -16 14 -34 25 -40 25 -6 0 -9 -2 -7 -4z"/>
<path d="M3743 3803 c9 -9 20 -13 24 -9 4 4 1 11 -7 16 -25 16 -35 11 -17 -7z"/>
<path d="M1112 3761 c-7 -4 -23 -23 -37 -42 -42 -58 -59 -79 -96 -122 -57 -65
-136 -192 -190 -303 -27 -56 -49 -107 -49 -113 0 -6 -4 -11 -10 -11 -5 0 -21
-37 -35 -82 -14 -45 -31 -88 -36 -95 -7 -8 -7 -23 2 -47 11 -29 15 -33 27 -23
13 10 14 7 8 -25 -4 -21 -3 -38 1 -38 19 0 63 148 63 215 0 59 24 140 41 140
8 0 13 -6 11 -13 -1 -8 2 -11 8 -7 5 3 10 16 10 29 0 28 69 171 102 211 13 17
51 71 83 120 33 50 63 92 67 95 8 6 50 111 46 116 -2 1 -9 0 -16 -5z"/>
<path d="M661 2868 c-1 -21 -5 -38 -10 -38 -16 0 -23 -93 -22 -304 0 -138 4
-212 11 -216 14 -9 23 -91 23 -202 -1 -65 3 -88 13 -92 9 -4 12 -15 8 -34 -4
-21 4 -48 31 -103 21 -41 41 -76 46 -79 5 -4 17 -31 28 -62 20 -59 55 -119
105 -183 17 -22 37 -51 43 -65 5 -14 30 -47 55 -75 24 -27 60 -73 81 -101 20
-28 58 -70 84 -93 27 -23 66 -59 88 -80 22 -21 61 -50 87 -65 26 -15 62 -41
80 -58 49 -45 122 -89 273 -165 144 -71 145 -72 274 -63 14 1 30 -5 35 -12 41
-56 522 -116 622 -78 15 6 50 13 78 15 28 3 65 7 81 9 132 18 166 26 180 40 9
8 35 20 58 26 143 36 365 146 405 202 7 10 17 16 22 13 16 -10 111 45 157 91
25 24 49 44 54 44 18 0 249 240 249 258 0 11 11 27 24 35 13 9 36 40 50 69 14
29 45 85 69 123 88 141 212 489 222 621 3 38 7 97 10 132 2 34 1 62 -3 62 -13
0 -52 -70 -52 -94 0 -14 -4 -36 -10 -51 -5 -14 -14 -56 -20 -93 -14 -90 -55
-221 -96 -311 -19 -40 -31 -77 -28 -83 3 -5 1 -14 -4 -21 -6 -7 -25 -39 -42
-72 -17 -33 -42 -74 -56 -92 -13 -17 -24 -36 -24 -42 0 -6 -16 -27 -36 -47
-20 -20 -53 -60 -73 -89 -96 -142 -377 -401 -457 -421 -14 -4 -39 -22 -56 -40
-18 -19 -37 -34 -42 -34 -5 0 -18 -8 -28 -17 -11 -9 -32 -16 -48 -15 -32 2
-120 -32 -120 -47 0 -20 -56 -38 -130 -44 -85 -6 -170 -26 -185 -44 -22 -26
-145 -38 -145 -14 0 9 -157 8 -166 -2 -11 -11 -52 -9 -76 4 -25 13 -109 22
-191 19 -33 0 -65 4 -73 11 -8 6 -27 9 -43 6 -17 -4 -36 0 -49 9 -29 20 -110
44 -127 38 -19 -8 -90 27 -75 36 7 4 -4 10 -27 15 -40 7 -104 34 -113 46 -11
16 -76 59 -130 87 -30 15 -66 35 -80 43 -39 22 -190 149 -190 159 0 5 -6 7
-13 4 -14 -5 -57 31 -57 49 -1 7 -15 21 -33 32 -18 11 -40 36 -50 56 -10 21
-38 59 -62 85 -25 26 -45 51 -45 56 0 4 -13 17 -30 30 -18 13 -48 58 -76 112
-25 50 -53 100 -63 111 -10 11 -22 31 -26 45 -7 23 -7 24 10 10 18 -14 18 -13
-1 20 -10 19 -24 42 -30 50 -6 8 -14 29 -18 45 -4 17 -14 59 -23 95 -9 36 -16
84 -17 107 0 22 -4 39 -8 37 -4 -3 -10 5 -12 18 -3 13 -12 58 -21 101 -9 43
-14 81 -12 84 3 3 -1 23 -9 45 -12 34 -12 60 -4 147 11 108 7 227 -9 291 l-9
35 -1 -37z"/>
<path d="M807 1935 c-4 -8 -2 -17 3 -20 6 -4 10 3 10 14 0 25 -6 27 -13 6z"/>
<path d="M2234 1816 c-12 -31 0 -51 31 -51 27 0 30 3 30 30 0 25 -4 30 -28 33
-17 2 -29 -2 -33 -12z"/>
<path d="M2902 1760 c2 -39 1 -70 -2 -70 -3 0 -14 7 -24 15 -23 17 -79 20
-107 5 -31 -17 -49 -64 -49 -130 0 -66 18 -113 49 -130 29 -15 84 -12 110 6
22 16 24 16 33 0 5 -9 20 -16 33 -16 l25 0 0 195 0 195 -36 0 -36 0 4 -70z
m-19 -107 c33 -37 29 -133 -6 -155 -44 -28 -88 10 -89 76 -2 79 53 125 95 79z"/>
<path d="M1952 1623 l3 -178 32 -3 32 -3 3 73 3 73 63 3 c58 3 62 4 62 27 0
23 -4 24 -62 27 l-63 3 0 50 0 50 68 3 c64 3 67 4 67 27 0 25 0 25 -105 25
l-105 0 2 -177z"/>
<path d="M2230 1580 l0 -140 35 0 35 0 0 140 0 140 -35 0 -35 0 0 -140z"/>
<path d="M2390 1580 l0 -140 35 0 35 0 0 86 c0 108 16 143 66 144 38 0 47 -24
48 -128 l1 -97 33 -3 32 -3 0 114 c0 100 -3 117 -21 141 -17 21 -29 26 -68 26
-26 0 -56 -7 -67 -15 -25 -19 -34 -19 -34 0 0 10 -10 15 -30 15 l-30 0 0 -140z"/>
<path d="M2800 1195 c0 -42 -2 -45 -19 -35 -74 39 -136 -43 -101 -134 15 -40
55 -54 91 -33 26 14 31 15 35 2 4 -8 12 -15 20 -15 11 0 14 26 14 130 0 123
-1 130 -20 130 -17 0 -20 -7 -20 -45z m-4 -89 c14 -57 -17 -103 -53 -80 -20
12 -28 45 -19 80 5 19 13 24 36 24 23 0 31 -5 36 -24z"/>
<path d="M1818 1210 c-49 -38 -61 -129 -24 -185 21 -31 77 -49 132 -40 l44 6
0 65 0 64 -45 0 c-38 0 -45 -3 -45 -20 0 -15 7 -20 26 -20 22 0 25 -4 22 -27
-2 -23 -9 -29 -34 -31 -65 -6 -98 89 -51 144 20 22 32 27 73 28 36 1 49 5 49
16 0 11 -15 16 -61 18 -49 2 -65 -1 -86 -18z"/>
<path d="M2130 1075 c0 -88 1 -95 20 -95 18 0 20 7 20 55 0 57 22 95 54 95 12
0 26 20 26 36 0 10 -38 3 -58 -12 -20 -14 -23 -14 -28 0 -3 9 -12 16 -20 16
-11 0 -14 -20 -14 -95z"/>
<path d="M2403 1163 c-7 -2 -13 -11 -13 -19 0 -11 11 -14 42 -12 32 2 43 -1
46 -13 2 -12 -7 -18 -38 -22 -56 -7 -72 -23 -68 -66 4 -47 44 -64 89 -38 26
14 31 15 35 2 4 -8 12 -15 20 -15 11 0 14 18 14 79 0 71 -2 82 -22 95 -21 15
-79 20 -105 9z m81 -92 c9 -14 -4 -40 -26 -52 -25 -13 -52 9 -43 34 9 22 59
35 69 18z"/>
<path d="M3018 1150 c-31 -23 -41 -68 -27 -110 18 -49 91 -76 140 -50 33 18
22 33 -19 26 -26 -4 -45 -1 -60 10 -36 25 -25 34 41 34 60 0 64 1 61 23 -1 12
-3 28 -3 35 -1 6 -10 21 -21 32 -26 26 -80 26 -112 0z m80 -22 c24 -24 13 -38
-28 -38 -43 0 -45 2 -30 31 12 21 40 25 58 7z"/>
</g>
</svg>
